<svg width="64" height="64" viewBox="0 0 64 64" xmlns="http://www.w3.org/2000/svg" xmlns:xlink="http://www.w3.org/1999/xlink"><defs><path id="a" d="M0 0h64v64H0z"/></defs><g fill="none" fill-rule="evenodd"><mask id="b" fill="#fff"><use xlink:href="#a"/></mask><g fill="#262626" mask="url(#b)"><path d="M50.0472 44.3698v5.637h-5.637v4h9.637v-9.637zm-5.5179-35.37v4.001h5.637v5.636h3.999v-9.637zm-35.4987 0v9.637h4v-5.636h5.636v-4.001zM9 44.4301v9.636h9.636v-3.999H13v-5.637z"/><g opacity=".4960472"><path d="M38.9463 26.4209l-.061-.061c-.574-.57-1.506-.568-2.081.008l-2.232 2.271c-.118.118-.307.124-.43.011l-3.149-2.89c-.306-.28-.703-.435-1.118-.4330191l-4.672.0140191c-.11 0-.215.043-.295.118l-3.947 3.772c-.578.582-.616 1.517-.082 2.086.285.303.669.469 1.081.468h.007c.409-.003.801-.177 1.072-.475l2.787-2.968 1.001-.003-6.503 7.312-4.025.012c-.955.003-1.737.719-1.782 1.63-.023.476.145.927.473 1.271.323.339.777.533 1.246.531l6.006-.018c.118 0 .231-.05.312-.136l3.068-3.294 2.595 2.698-.766 4.994c-.194.828.205 1.669.95 1.999.229.103.473.153.714.1520147.261-.0010147.519-.0600147.758-.1790147.46-.23.79-.648.909-1.167l1.312-7.163c.026-.139-.018-.283-.12-.382l-3.572-3.546 2.821-2.834 1.979 1.967c.553.548 1.513.546 2.06-.007l3.691-3.711c.272-.275.422-.639.4200197-1.025-.0010197-.386-.1530197-.75-.4270197-1.022"/><path d="M34.2158 26.6006104c1.419-.0040104 2.57-1.1620104 2.5660104-2.5820104-.0040104-1.419-1.1620104-2.57-2.5820104-2.5650162-1.419.0030162-2.57 1.1620162-2.5660104 2.5810162.0050104 1.42 1.1620104 2.57 2.5820104 2.5660104"/></g><path d="M48.2451 26.8447l-.059-.058c-.545-.542-1.431-.54-1.976.008l-2.122 2.157c-.113.114-.292.119-.409.011l-2.993-2.746c-.291-.267-.669-.413-1.063-.4120051l-4.44.0140051c-.105 0-.205.04-.281.112l-3.752 3.584c-.55.554-.585 1.443-.078 1.982.272.289.636.448 1.028.447h.007c.389-.003.762-.17 1.019-.453l2.648-2.82.952-.003-6.181 6.949-3.825.012c-.907.003-1.651.683-1.693 1.549-.023.452.137.882.448 1.208.308.322.74.507 1.185.505l5.708-.017c.113-.001.221-.048.298-.131l2.915-3.129 2.467 2.564-.728 4.747c-.185.786.195 1.586.902 1.899.218.098.45.146.679.146.247-.001.493-.059.72-.172.437-.218.751-.615.864-1.109l1.248-6.807c.024-.133-.018-.268-.114-.363l-3.395-3.37 2.681-2.694 1.88 1.869c.525.522 1.438.519 1.959-.006l3.507-3.528c.259-.26.401-.606.4000052-.973-.0020052-.368-.1450052-.712-.4060052-.972"/><path d="M43.749 27.015611c1.349-.004011 2.442-1.104011 2.4380109-2.454011C46.184 23.2126 45.083 22.1196 43.734 22.1225938 42.385 22.1266 41.291 23.2276 41.2949891 24.5766 41.299 25.9256 42.399 27.0196 43.749 27.015611"/></g></g></svg>