<svg width="64" height="64" viewBox="0 0 64 64" xmlns="http://www.w3.org/2000/svg" xmlns:xlink="http://www.w3.org/1999/xlink"><defs><path id="a" d="M0 0h64v64H0z"/></defs><g fill="none" fill-rule="evenodd"><mask id="b" fill="#fff"><use xlink:href="#a"/></mask><g mask="url(#b)" fill="#FFF"><path d="M50.0454 44.3698v5.637h-5.637v4h9.637v-9.637zm-5.5152-35.37v4.001h5.634v5.636h4.001v-9.637zm-35.5005 0v9.637h4.001v-5.636h5.636v-4.001zm-.0288 35.4303v9.636h9.636v-3.999h-5.636v-5.637zm27.5904-12.9262c0 2.767-2.242 5.009-5.009 5.009-2.766 0-5.009-2.242-5.009-5.009 0-2.767 2.243-5.009 5.009-5.009 2.767 0 5.009 2.242 5.009 5.009"/></g></g></svg>