<svg height="64" viewBox="0 0 64 64" width="64" xmlns="http://www.w3.org/2000/svg"><path d="M37.3333333 19.8041745v26.0624922H37.23832C36.4478844 52.476096 30.8223182 57.6 24 57.6c-7.3637967 0-13.3333333-5.9695367-13.3333333-13.3333333 0-7.3637967 5.9695366-13.3333334 13.3333333-13.3333334 3.5014016 0 6.6875758 1.3496492 9.0666667 3.5570919V10c.0278782-.000342.053584-.0006263.0771175-.0008527l-.040411-.1818492L53.1160352 5.37004l2.3139249 10.412662zM24 49.6c2.9455187 0 5.3333333-2.3878147 5.3333333-5.3333333 0-2.9455187-2.3878146-5.3333334-5.3333333-5.3333334s-5.3333333 2.3878147-5.3333333 5.3333334C18.6666667 47.2121853 21.0544813 49.6 24 49.6z" fill="#3b3e40" fill-rule="evenodd"/></svg>