<svg width="64" height="64" viewBox="0 0 64 64" xmlns="http://www.w3.org/2000/svg" xmlns:xlink="http://www.w3.org/1999/xlink"><defs><path id="a" d="M0 0h64v64H0z"/><path id="c" d="M.3903.0163h41.498V46H.3903z"/></defs><g fill="none" fill-rule="evenodd"><mask id="b" fill="#fff"><use xlink:href="#a"/></mask><g mask="url(#b)"><path fill="#262626" d="M9 9.0003v9.636h4v-5.636h5.636v-4z"/><g transform="translate(13 9.3413)"><mask id="d" fill="#fff"><use xlink:href="#c"/></mask><path d="M36.6893 8.1373c2.867 0 5.199 2.48 5.199 5.529v17.463c0 8.199-6.26 14.871-13.955 14.871h-1.012c-7.533 0-14.5-3.758-18.637-10.051-3.795-5.773-6.41-9.671-7.775-11.587l-.119-.167.14-.15c3.499-3.726 6.995-4.572 10.403-2.51V8.7933c0-3.049 2.332-5.529 5.199-5.529.68 0 1.338.137 1.959.406.734-2.166 2.709-3.654 4.893-3.654 1.271 0 2.478.484 3.425 1.369.95-.885 2.159-1.369 3.428-1.369 2.867 0 5.199 2.48 5.199 5.529v2.879c.532-.191 1.086-.287 1.653-.287zm-17.18 15.121c-.793 0-1.439-.646-1.439-1.439V8.7933c0-.941-1.19-1.779-2.129-1.779-.938 0-2.129.838-2.129 1.779v20.018l-2.801-3.588c-2.363-1.557-4.381-1.699-6.152-.432l6.142 9.309c3.535 5.357 9.477 8.556 15.897 8.556h1.035c5.748 0 10.791-5.386 10.791-11.527v-17.463c0-.986-1.113-1.779-2.035-1.779-.92 0-2.034.793-2.034 1.779v8.199c0 .768-.625 1.393-1.392 1.393-.768 0-1.393-.625-1.393-1.393v-16.32c0-.986-1.113-1.781-2.033-1.781-.922 0-2.035.795-2.035 1.781v16.32c0 .768-.625 1.393-1.393 1.393-.767 0-1.39-.625-1.39-1.393v-16.32c0-.986-1.114-1.781-2.035-1.781-.92 0-2.034.795-2.034 1.781v16.274c0 .793-.646 1.439-1.441 1.439z" fill="#262626" mask="url(#d)"/></g></g></g></svg>