<svg version="1.1" id="图层_1" xmlns="http://www.w3.org/2000/svg" x="0" y="0" viewBox="0 0 47.1 47.2" xml:space="preserve"><style>.st0{fill:#231815}</style><g id="图层_2_1_"><g id="图层_1-2"><path class="st0" d="M28.7 39.9h-1.8l-2.1-3-1 1v2h-1.5v-9.5h1.6v5.7l2.8-3h1.9l-2.7 2.8 2.8 4zm9.1-7c1.3-.1 2.4.9 2.4 2.2v4.8h-1.6V36c0-1.1-.5-1.7-1.4-1.7s-1.5.6-1.5 1.7v3.9h-1.6V36c0-1.1-.5-1.7-1.4-1.7-.9 0-1.5.7-1.5 1.7v3.9h-1.6V33h1.6v1c.4-.7 1.2-1.2 2.1-1.2.8 0 1.6.5 2 1.2.7-.7 1.6-1.1 2.5-1.1zm-24.5-7.2c-.6 0-1-.4-1-1V14.5c0-.6.4-1 1-1s1 .4 1 1v10.2c0 .6-.5 1-1 1zM2 13.7H0C0 6.1 6.1 0 13.7 0v2C7.2 2 2 7.2 2 13.7z"/><path class="st0" d="M7.7 13.7h-2c0-4.4 3.6-8 8-8v2c-3.3 0-6 2.6-6 6zm26.1 12c-.6 0-1-.4-1-1V14.5c0-.6.4-1 1-1s1 .4 1 1v10.2c0 .6-.5 1-1 1zm13.3-12h-2C45.1 7.2 39.9 2 33.4 2V0C41 0 47.1 6.1 47.1 13.7z"/><path class="st0" d="M41.4 13.7h-2c0-3.3-2.7-6-6-6v-2c4.4 0 8 3.5 8 8zm.7 33.5H5c-2.8 0-5-2.2-5-5V28.7c0-2.8 2.2-5 5-5h37.1c2.8 0 5 2.2 5 5v13.5c0 2.8-2.2 5-5 5zM5 25.7c-1.7 0-3 1.3-3 3v13.5c0 1.7 1.3 3 3 3h37.1c1.7 0 3-1.3 3-3V28.7c0-1.7-1.3-3-3-3H5z"/></g></g><path class="st0" d="M8.5 32.3l-1.6.5-.3-1.3 2.4-.8h1.1v9.2H8.5v-7.6zM16 40c-.6 0-1.1-.1-1.6-.4s-.9-.6-1.2-1-.6-.9-.8-1.5c-.3-.5-.4-1.1-.4-1.8s.1-1.3.3-1.8c.2-.6.5-1.1.8-1.5.3-.4.8-.8 1.3-1s1-.4 1.6-.4c.6 0 1.1.1 1.6.4.5.2.9.6 1.2 1 .3.4.6.9.8 1.5.2.6.3 1.2.3 1.8 0 .6-.1 1.3-.3 1.8-.2.6-.5 1.1-.8 1.5-.3.4-.8.8-1.3 1-.4.3-.9.4-1.5.4zm0-1.4c.4 0 .7-.1 1-.3.3-.2.5-.4.7-.7.2-.3.4-.6.5-1 .1-.4.2-.8.2-1.3s-.1-.9-.2-1.3-.3-.7-.5-1c-.2-.3-.4-.5-.7-.7-.3-.2-.6-.3-1-.3s-.7.1-1 .3-.5.4-.7.7c-.2.3-.4.6-.5 1-.1.4-.2.8-.2 1.3s.1.9.2 1.3.3.7.5 1 .4.5.7.7c.3.2.7.3 1 .3z"/></svg>