<svg version="1.1" id="图层_1" xmlns="http://www.w3.org/2000/svg" x="0" y="0" viewBox="0 0 47.6 47.6" xml:space="preserve"><style>.st0{fill:#231815}</style><g id="图层_2_1_"><g id="图层_1-2"><path class="st0" d="M23.8 2c12.1 0 21.8 9.8 21.8 21.8s-9.8 21.8-21.8 21.8S2 35.9 2 23.8C2 11.8 11.8 2 23.8 2m0-2C10.7 0 0 10.7 0 23.8s10.7 23.8 23.8 23.8S47.6 37 47.6 23.8C47.6 10.7 37 0 23.8 0z"/><path class="st0" d="M12.5 18.8v-2.1h9.3v1.8l-3.9 4c2.1.3 4.1 1.3 4.1 4s-2 4.4-4.9 4.4c-2.1.1-4.1-.8-5.4-2.4l1.7-1.6c.9 1.2 2.2 1.8 3.7 1.8 1.2.1 2.3-.7 2.4-1.9v-.2c0-1.4-1.2-2.2-3.2-2.2h-1.1l-.4-1.5 3.8-4-6.1-.1zm21.3-2.2v8.9h2v2h-2v3.1h-2.4v-3.1h-7.1l-.5-1.8 7.8-9.2h2.2zM31.4 20l-4.6 5.5h4.6V20z"/><path transform="rotate(-43.788 4.4459456 4.0758923)" class="st0" d="M-.1 3.1H9v2H-.1z"/><path transform="rotate(-46.227 43.2097794 4.0824734)" class="st0" d="M42.2-.5h2v9.1h-2z"/></g></g></svg>