<svg xmlns="http://www.w3.org/2000/svg" viewBox="0 0 47.84 47.84"><defs><style>.cls-1{fill:#231815}</style></defs><g id="图层_2" data-name="图层 2"><g id="图层_1-2" data-name="图层 1"><path class="cls-1" d="M23.92 2A21.92 21.92 0 1 1 2 23.92 21.94 21.94 0 0 1 23.92 2m0-2a23.92 23.92 0 1 0 23.92 23.92A23.92 23.92 0 0 0 23.92 0z"/><path class="cls-1" d="M27.08 18.27l3.18 5.51-3.18 5.51h-6.36l-3.18-5.51 3.18-5.51h6.36m1.16-2h-8.67l-4.34 7.51 4.34 7.51h8.67l4.33-7.51-4.33-7.51z"/><path class="cls-1" transform="rotate(-28.78 25.3192353 12.872765)" d="M24.32-.1h2v25.94h-2z"/><path class="cls-1" transform="rotate(-88.81 15.1803903 17.1388215)" d="M14.18 4.29h2v25.7h-2z"/><path class="cls-1" transform="rotate(-58.76 13.6146599 28.168073)" d="M.93 27.17H26.3v2H.93z"/><path class="cls-1" transform="rotate(-28.4 22.882353 34.9705882)" d="M21.57 21.9h2v26.11h-2z"/><path class="cls-1" transform="rotate(-88.78 32.69453 30.6453644)" d="M31.7 17.76h2v25.78h-2z"/><path class="cls-1" transform="rotate(-58.76 33.9927895 19.6646368)" d="M21.15 18.66h25.68v2H21.15z"/></g></g></svg>