<svg xmlns="http://www.w3.org/2000/svg" viewBox="0 0 46.81 46.82"><defs><style>.cls-1{fill:#231815}</style></defs><g id="图层_2" data-name="图层 2"><g id="图层_1-2" data-name="图层 1"><path class="cls-1" d="M26.6 13.48a3.41 3.41 0 1 1 3.4-3.4 3.41 3.41 0 0 1-3.4 3.4zm0-5.31a1.91 1.91 0 1 0 1.91 1.91 1.92 1.92 0 0 0-1.91-1.91zm.25 31.98a2.25 2.25 0 0 1-2.25-2.25v-3.48a3.23 3.23 0 0 0-.93-2.28l-2.75-2.8c-1.5-1.6-2.41-2.57-1.89-4.52l1.51-5.67h-1.3a2.24 2.24 0 0 0-1.64.73l-2.16 2.36a2.32 2.32 0 0 1-3.14.28 2.24 2.24 0 0 1-.3-3.14l2.71-3.17a4.71 4.71 0 0 1 3.58-1.66h6.26a4.75 4.75 0 0 1 2.91 1l3.73 2.9a3.28 3.28 0 0 0 1.82.68l2.26.12a2.25 2.25 0 0 1 0 4.5H31.8a4.75 4.75 0 0 1-2.8-.93l-1.44-1.05-1.11 3.59a3.23 3.23 0 0 0 .55 2.95l1.06 1.36a4.83 4.83 0 0 1 1 2.87l.05 5.35a2.26 2.26 0 0 1-2.26 2.26zm-5.33-22.51a.79.79 0 0 1 .6.29.76.76 0 0 1 .13.65l-1.77 6.63c-.3 1.1 0 1.52 1.53 3.1l.08.08 2.65 2.7a4.77 4.77 0 0 1 1.36 3.33v3.48a.75.75 0 0 0 1.5 0l-.05-5.34a3.33 3.33 0 0 0-.68-2l-1.06-1.36a4.79 4.79 0 0 1-.81-4.29l1.42-4.59a.76.76 0 0 1 .48-.49.79.79 0 0 1 .68.11l2.29 1.67a3.27 3.27 0 0 0 1.91.62h3.45a.76.76 0 0 0 .75-.75.79.79 0 0 0-.79-.75l-2.28-.12a4.78 4.78 0 0 1-2.66-1l-3.73-2.9a3.28 3.28 0 0 0-2-.68h-6.25a3.21 3.21 0 0 0-2.45 1.13l-2.7 3.16a.73.73 0 0 0-.16.54.75.75 0 0 0 .75.67.76.76 0 0 0 .58-.27l2.18-2.39a3.75 3.75 0 0 1 2.73-1.22h2.29z"/><path class="cls-1" d="M11.56 34.87a2.25 2.25 0 0 1-.15-4.49l4-.28a.5.5 0 0 0 .36-.18l1.5-1.92a.75.75 0 0 1 .58-.29.66.66 0 0 1 .59.27l2 2.37a.75.75 0 0 1 0 .92l-1.53 2.07a3.63 3.63 0 0 1-2.65 1.32l-4.57.17zm6.32-5.18L17 30.87a2.08 2.08 0 0 1-1.42.73l-4 .27a.76.76 0 0 0-.7.8.75.75 0 0 0 .75.7l4.65-.17a2.06 2.06 0 0 0 1.52-.75l1.15-1.56zM2 12.44H0V5a5 5 0 0 1 5-5h7.51v2H5a3 3 0 0 0-3 3zm44.81 0h-2V5a3 3 0 0 0-3-3h-7.43V0h7.43a5 5 0 0 1 5 5zm-34.3 34.38H5a5 5 0 0 1-5-5v-7.43h2v7.43a3 3 0 0 0 3 3h7.51zm29.3 0h-7.43v-2h7.43a3 3 0 0 0 3-3v-7.43h2v7.43a5 5 0 0 1-5 5z"/></g></g></svg>