<svg width="56" height="56" viewBox="0 0 56 56" xmlns="http://www.w3.org/2000/svg" xmlns:xlink="http://www.w3.org/1999/xlink"><defs><path id="a" d="M.0008191.0412733h51.6286171V52H.0008192z"/></defs><g fill="none" fill-rule="evenodd"><path d="M0 0h56v56H0z"/><path fill="#000" d="M27 31h2V16h-2zm16-19.5624309L46.4375691 8 48 9.562431 44.5624309 13zm-7.107883 36.7161931c.6740426 0 1.2322341-.1813778 1.6757447-.5488444.4435106-.3651111.6646809-.8326889.6646809-1.4003778v-.0376889c0-.5182222-.2129788-.9575333-.6365958-1.3179333-.4247872-.3580445-.9935106-.5394222-1.7038298-.5394222-.7114893 0-1.2802127.1813777-1.7038298.5394222-.4247872.3604-.6365957.7926444-.6365957 1.2979111v.0376889c0 .5806444.2211702 1.0552889.6635106 1.4204.4435107.3674666 1.0028724.5488444 1.6769149.5488444m0 5.8429556c.8601064 0 1.5353192-.1919778 2.0221277-.5747556.4868085-.3839555.7302127-.8515333.7302127-1.4050889v-.0376889c0-.3015111-.0725531-.5735777-.2153191-.8185555-.1439362-.2449778-.3370213-.4558-.5804255-.6312889-.2434043-.1766667-.5336171-.3109333-.8706383-.4051556-.3370213-.0942222-.6997873-.1413333-1.0859575-.1413333-.3873404 0-.7501064.0471111-1.0871276.1413333-.3358511.0942223-.6260639.2284889-.8694681.4051556-.2434043.1754889-.4376596.3863111-.5804256.6312889-.1439361.2449778-.2164893.5170444-.2164893.8185555v.0376889c0 .5406.2434042 1.0058223.7302127 1.3956667.4879788.3886667 1.1620213.5841778 2.0232979.5841778m0 1.9398c-.7114893 0-1.3738298-.0906889-1.9846808-.2720667-.6120213-.1813778-1.1421277-.4357778-1.5926596-.7620222-.4481915-.3262445-.7980851-.7219778-1.0473404-1.1848445-.2504256-.4652222-.3744681-.9787333-.3744681-1.5440666v-.0365111c0-.8032445.2047872-1.4616223.6178723-1.9763111.4107447-.5135112.9923405-.9280889 1.7412766-1.2425556-.5617021-.2885556-1.0204255-.6654444-1.3773404-1.1318444-.3545745-.4652223-.533617-1.0694223-.533617-1.8126v-.0376889c0-.5029111.115851-.9716667.3475532-1.4050889.2293617-.4334222.5453191-.8126667.9455319-1.1330222.3990425-.3215334.8764893-.5724 1.4311702-.7549556.5558511-.1825556 1.1655319-.2732444 1.8267021-.2732444.6494681 0 1.2532979.0906888 1.8161702.2732444.5605319.1825556 1.0414894.4310667 1.4417022.7455333.3990425.3144667.715.6913556.9455319 1.1318445.2305319.4404889.346383.9127778.346383 1.4156889v.0376889c0 .7431777-.1790426 1.3473777-.5336171 1.8126-.3557446.4664-.8156383.8432888-1.3761702 1.1318444.7103192.3274222 1.2825532.7372889 1.7131915 1.2331333.4306383.4958445.6447872 1.1389111.6447872 1.9280223v.0376888c0 .5900667-.1240425 1.1200667-.3732978 1.5911778-.2504256.4699334-.6003192.8715556-1.0485107 1.2036889-.4493617.3333111-.9806383.5865333-1.5926595.7620222-.6108511.1754889-1.2731915.2626445-1.9835107.2626445M43.4745106 42.55708h2.2842554v6.6344222l6.2348936-6.6344222h2.827234l-5.4485106 5.6721778 5.6919149 7.5189333h-2.788617l-4.4760639-5.936-2.040851 2.1105778v3.8254222h-2.2842554z"/><g transform="translate(2 4)"><mask id="b" fill="#fff"><use xlink:href="#a"/></mask><path d="M25.6390106 49.6516289c-12.8828723-.0965778-23.297766-10.6282667-23.297766-23.6168 0-13.0486 10.5085107-23.6262222 23.473298-23.6262222 12.9343617.0058889 23.43 10.5364 23.474468 23.5555555 0 .0223778.0011703.0471111.0011703.0694889 0 2.9597556-.5640426 5.7805333-1.5517022 8.3916667h2.4972341c.8963829-2.6358667 1.3913829-5.4601778 1.3937234-8.4022667 0-14.3500444-11.5570213-25.9817778-25.8148936-25.9817778-14.2567022 0-25.8137235 11.6317334-25.8137235 25.9817778 0 14.2888 11.4622341 25.8816667 25.6381915 25.9770667v-2.3484889z" fill="#000" mask="url(#b)"/></g><path fill="#000" d="M20 2h16V0H20z"/></g></svg>