<svg xmlns="http://www.w3.org/2000/svg" viewBox="0 0 50.71 46.86"><defs><style>.cls-1{fill:#231815}</style></defs><g id="图层_2" data-name="图层 2"><g id="图层_1-2" data-name="图层 1"><path class="cls-1" d="M38.88 46.86H5a5 5 0 0 1-5-5V17.29a5 5 0 0 1 5-5h33.88a5 5 0 0 1 5 5v24.57a5 5 0 0 1-5 5zM5 14.29a3 3 0 0 0-3 3v24.57a3 3 0 0 0 3 3h33.88a3 3 0 0 0 3-3V17.29a3 3 0 0 0-3-3z"/><path class="cls-1" d="M45.71 34.57v-2a3 3 0 0 0 3-3V5a3 3 0 0 0-3-3H11.83a3 3 0 0 0-3 3v5.56h-2V5a5 5 0 0 1 5-5h33.88a5 5 0 0 1 5 5v24.57a5 5 0 0 1-5 5zm-34.82-4.38V34h-1.6v-9.1h1.6v3.79h4.34v-3.77h1.6V34h-1.6v-3.81zM21.91 34h-3.39v-9.1h3.39a4.56 4.56 0 1 1 0 9.1zm0-7.64h-1.79v6.19h1.79a3.1 3.1 0 1 0 0-6.19z"/><path class="cls-1" d="M33.88 34l-2.24-3.17h-2V34H28v-9.1h4.05c2.1 0 3.38 1.11 3.38 2.89a2.72 2.72 0 0 1-2.17 2.77l2.5 3.44zM32 26.38h-2.36v3.05H32c1.14 0 1.87-.59 1.87-1.53s-.72-1.52-1.87-1.52z"/></g></g></svg>