<svg width="64" height="64" viewBox="0 0 64 64" xmlns="http://www.w3.org/2000/svg" xmlns:xlink="http://www.w3.org/1999/xlink"><defs><path id="a" d="M0 0h64v64H0z"/></defs><g fill="none" fill-rule="evenodd"><mask id="b" fill="#fff"><use xlink:href="#a"/></mask><g mask="url(#b)" fill="#262626"><path d="M29.9504 31.5781c0-.626-.218-1.13-.654-1.51-.437-.381-1.203-.738-2.299-1.074-1.879-.566-3.306-1.233-4.278-2.002-.974-.768-1.46-1.815-1.46-3.143 0-1.335.547-2.425 1.644-3.272 1.096-.847 2.494-1.27 4.194-1.27 1.805 0 3.257.456 4.358 1.365 1.099.91 1.631 2.103 1.594 3.58l-.023.066h-3.166c0-.812-.246-1.437-.738-1.873-.492-.436-1.182-.654-2.069-.654-.806 0-1.428.193-1.869.581-.439.388-.66.884-.66 1.488 0 .552.239 1.005.717 1.359.477.354 1.301.729 2.472 1.125 1.79.506 3.154 1.169 4.093 1.985.941.816 1.411 1.893 1.411 3.227 0 1.394-.545 2.495-1.634 3.299-1.089.806-2.528 1.209-4.318 1.209-1.752 0-3.256-.436-4.513-1.309-1.257-.872-1.866-2.174-1.829-3.904l.022-.067h3.166c0 .962.283 1.671.85 2.125.566.455 1.335.683 2.304.683.873 0 1.539-.183 1.997-.548.459-.365.688-.854.688-1.466"/><path d="M43.7724 18.5446v4.001h7.228v28.455h-28.455v-7.626h-4v11.625h36.455v-36.455z"/><path d="M9 45.454h36.454V9H9v36.454zm4.001-4h28.454V13H13.001v28.454z"/></g></g></svg>