<svg width="64" height="64" viewBox="0 0 64 64" xmlns="http://www.w3.org/2000/svg" xmlns:xlink="http://www.w3.org/1999/xlink"><defs><path id="a" d="M0 0h64v64H0z"/><path id="c" d="M.3903.0163h41.498V46H.3903z"/></defs><g fill="none" fill-rule="evenodd"><mask id="b" fill="#fff"><use xlink:href="#a"/></mask><g mask="url(#b)"><path fill="#FFF" d="M9 9.0003v9.636h4v-5.636h5.636v-4z"/><g transform="translate(13 9.3413)"><mask id="d" fill="#fff"><use xlink:href="#c"/></mask><path d="M19.5093 23.2583c.795 0 1.441-.646 1.441-1.439V5.5453c0-.986 1.114-1.781 2.034-1.781.921 0 2.035.795 2.035 1.781v16.32c0 .768.623 1.393 1.39 1.393.768 0 1.393-.625 1.393-1.393v-16.32c0-.986 1.113-1.781 2.035-1.781.92 0 2.033.795 2.033 1.781v16.32c0 .768.625 1.393 1.393 1.393.767 0 1.392-.625 1.392-1.393v-8.199c0-.986 1.114-1.779 2.034-1.779.922 0 2.035.793 2.035 1.779v17.463c0 6.141-5.043 11.527-10.791 11.527h-1.035c-6.42 0-12.362-3.199-15.897-8.556l-6.142-9.309c1.771-1.267 3.789-1.125 6.152.432l2.801 3.588V8.7933c0-.941 1.191-1.779 2.129-1.779.939 0 2.129.838 2.129 1.779v13.026c0 .793.646 1.439 1.439 1.439m17.18-15.121c-.567 0-1.121.096-1.653.287v-2.879c0-3.049-2.332-5.529-5.199-5.529-1.269 0-2.478.484-3.428 1.369-.947-.885-2.154-1.369-3.425-1.369-2.184 0-4.159 1.488-4.893 3.654-.621-.269-1.279-.406-1.959-.406-2.867 0-5.199 2.48-5.199 5.529v12.742c-3.408-2.062-6.904-1.216-10.403 2.51l-.14.15.119.167c1.365 1.916 3.98 5.814 7.775 11.587 4.137 6.293 11.104 10.051 18.637 10.051h1.012c7.695 0 13.955-6.672 13.955-14.871v-17.463c0-3.049-2.332-5.529-5.199-5.529" fill="#FFF" mask="url(#d)"/></g></g></g></svg>