<svg height="64" viewBox="0 0 64 64" width="64" xmlns="http://www.w3.org/2000/svg"><path d="M28.1443703 37.9363555L10.0461205 56.5777393l-4.5254834-4.5254834 18.4292993-17.7727153-11.2587499-3.4997483 12.5202122-8.8542116-.1959884-15.3334394 12.289814 9.1713275 14.5224037-4.9246894-4.9246895 14.5224037 9.1713276 12.289814-15.3334395-.1959884-8.8542115 12.5202122zM48.3745504 41.6l8.6295146 6.2697094-2.5078837 3.4518058-8.6295146-6.2697094zm4.9587829-20.2666667h6.4V25.6h-6.4zM38.4 6.4h4.2666667v4.2666667H38.4zm-6.8046311 24.6710385l2.1764287 7.0016084 4.2335227-5.9863718 7.3314786.0937092-4.3851474-5.8762099 2.3546743-6.9436928-6.9436928 2.3546743-5.8762099-4.3851475.0937092 7.3314787-5.9863718 4.2335227z" fill="#3b3e40" fill-rule="evenodd"/></svg>